<svg xmlns="http://www.w3.org/2000/svg" viewBox="0 0 64 64" width="64" height="64" shape-rendering="crispEdges">
  <defs>
    <linearGradient id="plank" x1="0" y1="0" x2="0" y2="1">
      <stop offset="0" stop-color="#9d6a33"/>
      <stop offset="1" stop-color="#6d4620"/>
    </linearGradient>
    <linearGradient id="plankDark" x1="0" y1="0" x2="0" y2="1">
      <stop offset="0" stop-color="#8a5a2b"/>
      <stop offset="1" stop-color="#5a3a1a"/>
    </linearGradient>
  </defs>
  <rect width="64" height="64" fill="url(#plankDark)"/>
  <rect x="0" y="0" width="64" height="11" fill="url(#plank)"/>
  <rect x="0" y="22" width="64" height="11" fill="url(#plank)"/>
  <rect x="0" y="44" width="64" height="11" fill="url(#plank)"/>
  <g stroke="#3a1e08" stroke-width="1.2">
    <line x1="0" y1="11" x2="64" y2="11"/>
    <line x1="0" y1="22" x2="64" y2="22"/>
    <line x1="0" y1="33" x2="64" y2="33"/>
    <line x1="0" y1="44" x2="64" y2="44"/>
    <line x1="0" y1="55" x2="64" y2="55"/>
  </g>
  <g stroke="#4d3317" stroke-width="0.4" opacity="0.6">
    <line x1="0" y1="4" x2="64" y2="4"/>
    <line x1="0" y1="17" x2="64" y2="17"/>
    <line x1="0" y1="27" x2="64" y2="27"/>
    <line x1="0" y1="39" x2="64" y2="39"/>
    <line x1="0" y1="49" x2="64" y2="49"/>
    <line x1="0" y1="60" x2="64" y2="60"/>
  </g>
  <g fill="#d4af37" stroke="#3a1e08" stroke-width="0.4">
    <circle cx="5" cy="5" r="1.2"/>
    <circle cx="59" cy="5" r="1.2"/>
    <circle cx="5" cy="27" r="1.2"/>
    <circle cx="59" cy="27" r="1.2"/>
    <circle cx="5" cy="49" r="1.2"/>
    <circle cx="59" cy="49" r="1.2"/>
  </g>
  <g fill="#3a1e08" opacity="0.55">
    <rect x="14" y="14" width="3" height="6"/>
    <rect x="34" y="37" width="3" height="5"/>
    <rect x="48" y="58" width="3" height="4"/>
    <rect x="22" y="59" width="3" height="4"/>
    <rect x="42" y="3" width="3" height="6"/>
    <rect x="8" y="36" width="3" height="5"/>
  </g>
</svg>
