<svg xmlns="http://www.w3.org/2000/svg" viewBox="0 0 64 64" width="64" height="64">
  <rect width="64" height="64" fill="#8a5a2b"/>
  <g fill="#9d6a33">
    <rect x="0" y="0" width="64" height="11"/>
    <rect x="0" y="22" width="64" height="11"/>
    <rect x="0" y="44" width="64" height="11"/>
  </g>
  <g stroke="#4d3317" stroke-width="1.2">
    <line x1="0" y1="11" x2="64" y2="11"/>
    <line x1="0" y1="22" x2="64" y2="22"/>
    <line x1="0" y1="33" x2="64" y2="33"/>
    <line x1="0" y1="44" x2="64" y2="44"/>
    <line x1="0" y1="55" x2="64" y2="55"/>
  </g>
  <g fill="#5c3d1c">
    <circle cx="6" cy="5" r="1"/>
    <circle cx="58" cy="5" r="1"/>
    <circle cx="6" cy="27" r="1"/>
    <circle cx="58" cy="27" r="1"/>
    <circle cx="6" cy="49" r="1"/>
    <circle cx="58" cy="49" r="1"/>
  </g>
  <g fill="#6d4620" opacity="0.5">
    <rect x="14" y="14" width="3" height="6"/>
    <rect x="34" y="37" width="3" height="5"/>
    <rect x="48" y="58" width="3" height="4"/>
    <rect x="22" y="59" width="3" height="4"/>
  </g>
</svg>
