<svg xmlns="http://www.w3.org/2000/svg" viewBox="0 0 128 128" shape-rendering="geometricPrecision">
  <defs>
    <linearGradient id="roofGrad" x1="0" y1="0" x2="0" y2="1">
      <stop offset="0" stop-color="#5a2a14"/>
      <stop offset="1" stop-color="#3a1808"/>
    </linearGradient>
    <linearGradient id="logGrad" x1="0" y1="0" x2="0" y2="1">
      <stop offset="0" stop-color="#b2824e"/>
      <stop offset="1" stop-color="#7a4e28"/>
    </linearGradient>
    <linearGradient id="doorGrad" x1="0" y1="0" x2="0" y2="1">
      <stop offset="0" stop-color="#6b3e1c"/>
      <stop offset="1" stop-color="#3a1e08"/>
    </linearGradient>
    <radialGradient id="windowGlow" cx="0.5" cy="0.5" r="0.5">
      <stop offset="0" stop-color="#ffe79a"/>
      <stop offset="1" stop-color="#d89030"/>
    </radialGradient>
    <radialGradient id="grassGrad" cx="0.5" cy="0.5" r="0.5">
      <stop offset="0" stop-color="#4a8a38"/>
      <stop offset="1" stop-color="#2a5220"/>
    </radialGradient>
  </defs>

  <ellipse cx="64" cy="120" rx="58" ry="7" fill="url(#grassGrad)" opacity="0.85"/>

  <g opacity="0.8">
    <circle cx="92" cy="32" r="6" fill="#c8c8c8"/>
    <circle cx="97" cy="23" r="7" fill="#d6d6d6"/>
    <circle cx="90" cy="16" r="8" fill="#e4e4e4"/>
  </g>
  <rect x="85" y="38" width="11" height="22" rx="1" fill="#4a3020" stroke="#1e1208" stroke-width="1.2"/>
  <rect x="83" y="36" width="15" height="4" rx="1" fill="#2e1a0e"/>

  <polygon points="18,70 64,26 110,70 104,74 64,34 24,74" fill="url(#roofGrad)" stroke="#1e0c04" stroke-width="1.2"/>
  <g stroke="#2a1208" stroke-width="0.8" opacity="0.7">
    <line x1="34" y1="66" x2="36" y2="74"/>
    <line x1="46" y1="54" x2="48" y2="62"/>
    <line x1="58" y1="42" x2="60" y2="50"/>
    <line x1="70" y1="42" x2="68" y2="50"/>
    <line x1="82" y1="54" x2="80" y2="62"/>
    <line x1="94" y1="66" x2="92" y2="74"/>
  </g>
  <polygon points="60,30 68,30 68,20 66,18 62,18 60,20" fill="#4a2a12" stroke="#1e0c04" stroke-width="0.8"/>

  <rect x="26" y="68" width="76" height="50" fill="url(#logGrad)" stroke="#3a1e08" stroke-width="1.2"/>

  <g stroke="#3a1e08" stroke-width="0.9" fill="none">
    <path d="M26,78 Q64,76 102,78"/>
    <path d="M26,88 Q64,86 102,88"/>
    <path d="M26,98 Q64,96 102,98"/>
    <path d="M26,108 Q64,106 102,108"/>
  </g>
  <g fill="#3a1e08">
    <circle cx="26" cy="73" r="2.2"/>
    <circle cx="102" cy="73" r="2.2"/>
    <circle cx="26" cy="83" r="2.2"/>
    <circle cx="102" cy="83" r="2.2"/>
    <circle cx="26" cy="93" r="2.2"/>
    <circle cx="102" cy="93" r="2.2"/>
    <circle cx="26" cy="103" r="2.2"/>
    <circle cx="102" cy="103" r="2.2"/>
    <circle cx="26" cy="113" r="2.2"/>
    <circle cx="102" cy="113" r="2.2"/>
  </g>

  <g>
    <rect x="34" y="82" width="14" height="14" rx="1" fill="url(#windowGlow)" stroke="#3a1e08" stroke-width="1.2"/>
    <line x1="41" y1="82" x2="41" y2="96" stroke="#3a1e08" stroke-width="1"/>
    <line x1="34" y1="89" x2="48" y2="89" stroke="#3a1e08" stroke-width="1"/>
  </g>
  <g>
    <rect x="80" y="82" width="14" height="14" rx="1" fill="url(#windowGlow)" stroke="#3a1e08" stroke-width="1.2"/>
    <line x1="87" y1="82" x2="87" y2="96" stroke="#3a1e08" stroke-width="1"/>
    <line x1="80" y1="89" x2="94" y2="89" stroke="#3a1e08" stroke-width="1"/>
  </g>

  <path d="M54,118 L54,94 Q54,84 64,84 Q74,84 74,94 L74,118 Z" fill="url(#doorGrad)" stroke="#1e0c04" stroke-width="1.2"/>
  <path d="M58,118 L58,94 Q58,88 64,88 Q70,88 70,94 L70,118" stroke="#1e0c04" stroke-width="0.8" fill="none"/>
  <rect x="56" y="100" width="16" height="2" fill="#2a1808"/>
  <rect x="56" y="108" width="16" height="2" fill="#2a1808"/>
  <circle cx="70" cy="104" r="1.3" fill="#d8b040" stroke="#604818" stroke-width="0.4"/>

  <g>
    <rect x="100" y="78" width="3" height="14" fill="#1e0a02"/>
    <path d="M101.5,80 Q96,80 96,84 Q96,88 101.5,88" fill="none" stroke="#1e0a02" stroke-width="1.2"/>
    <rect x="93" y="85" width="8" height="10" rx="1" fill="#2a1a08" stroke="#d8b040" stroke-width="0.6"/>
    <rect x="95" y="87" width="4" height="6" fill="#ffd060" opacity="0.8"/>
  </g>

  <g>
    <rect x="9" y="92" width="4" height="12" fill="#3a1e08"/>
    <polygon points="4,98 11,72 18,98" fill="#2a5220" stroke="#133012" stroke-width="0.6"/>
    <polygon points="6,88 11,68 16,88" fill="#3a6a2c" stroke="#133012" stroke-width="0.6"/>
    <polygon points="7,80 11,64 15,80" fill="#4a7a38" stroke="#133012" stroke-width="0.6"/>
  </g>

  <g>
    <ellipse cx="118" cy="110" rx="6" ry="3.2" fill="#c03030" stroke="#5a1010" stroke-width="0.5"/>
    <rect x="116" y="110" width="4" height="8" rx="1" fill="#f0e0c0" stroke="#6a5030" stroke-width="0.5"/>
    <circle cx="115" cy="108" r="0.9" fill="#f8e8d0"/>
    <circle cx="118" cy="109" r="0.7" fill="#f8e8d0"/>
    <circle cx="121" cy="108.5" r="0.6" fill="#f8e8d0"/>
  </g>

  <g>
    <ellipse cx="40" cy="117" rx="6" ry="2" fill="#6a4828" opacity="0.8"/>
    <ellipse cx="40" cy="116" rx="5.5" ry="1.6" fill="#8a6840"/>
    <circle cx="38" cy="115.6" r="0.5" fill="#4a2810"/>
    <circle cx="41" cy="115.6" r="0.5" fill="#4a2810"/>
  </g>

  <g>
    <line x1="50" y1="68" x2="50" y2="74" stroke="#1e0c04" stroke-width="0.8"/>
    <line x1="78" y1="68" x2="78" y2="74" stroke="#1e0c04" stroke-width="0.8"/>
    <rect x="40" y="73" width="48" height="11" rx="1" fill="#d8a868" stroke="#3a1e08" stroke-width="1"/>
    <rect x="40" y="73" width="48" height="11" rx="1" fill="url(#logGrad)" opacity="0.35"/>
    <line x1="40" y1="76" x2="88" y2="76" stroke="#3a1e08" stroke-width="0.4" opacity="0.5"/>
    <line x1="40" y1="81" x2="88" y2="81" stroke="#3a1e08" stroke-width="0.4" opacity="0.5"/>
    <text x="64" y="82" font-family="Georgia, serif" font-size="7.5" font-weight="bold" text-anchor="middle" fill="#2a1408" letter-spacing="0.4">FORESTIER</text>
  </g>
</svg>
