<svg xmlns="http://www.w3.org/2000/svg" viewBox="0 0 64 64" width="64" height="64">
  <defs>
    <radialGradient id="r" cx="50%" cy="50%" r="70%">
      <stop offset="0%" stop-color="#d4b47f"/>
      <stop offset="100%" stop-color="#8a6d44"/>
    </radialGradient>
  </defs>
  <rect width="64" height="64" fill="#b89968"/>
  <rect width="64" height="64" fill="url(#r)" opacity="0.4"/>
  <g fill="#7a5e3a" stroke="#4a3818" stroke-width="0.4">
    <ellipse cx="10" cy="14" rx="2.4" ry="1.8"/>
    <ellipse cx="48" cy="12" rx="2.6" ry="2"/>
    <ellipse cx="18" cy="40" rx="2.2" ry="1.6"/>
    <ellipse cx="56" cy="50" rx="2.4" ry="1.8"/>
    <ellipse cx="32" cy="54" rx="2" ry="1.4"/>
  </g>
  <g fill="#9e7f51" stroke="#6a5028" stroke-width="0.3">
    <ellipse cx="28" cy="22" rx="1.6" ry="1.2"/>
    <ellipse cx="44" cy="34" rx="1.4" ry="1"/>
    <ellipse cx="8" cy="58" rx="1.5" ry="1.1"/>
    <ellipse cx="52" cy="28" rx="1.2" ry="0.9"/>
    <ellipse cx="38" cy="46" rx="1.3" ry="1"/>
  </g>
  <g fill="#d4b47f" opacity="0.5">
    <circle cx="20" cy="8" r="1.5"/>
    <circle cx="40" cy="48" r="1.8"/>
    <circle cx="6" cy="30" r="1.2"/>
    <circle cx="58" cy="38" r="1.3"/>
  </g>
  <g stroke="#6a5028" stroke-width="0.3" fill="none" opacity="0.5">
    <path d="M14 20 Q18 22 14 26"/>
    <path d="M44 40 Q48 44 44 48"/>
    <path d="M26 4 Q30 6 26 10"/>
  </g>
</svg>
