<svg xmlns="http://www.w3.org/2000/svg" viewBox="0 0 64 64" shape-rendering="geometricPrecision">
  <defs>
    <linearGradient id="rockGradI" x1="0" y1="0" x2="0" y2="1">
      <stop offset="0" stop-color="#8a7a68"/>
      <stop offset="1" stop-color="#4a3e30"/>
    </linearGradient>
    <linearGradient id="goldGradI" x1="0" y1="0" x2="0" y2="1">
      <stop offset="0" stop-color="#ffe060"/>
      <stop offset="0.5" stop-color="#f8c020"/>
      <stop offset="1" stop-color="#a87010"/>
    </linearGradient>
    <radialGradient id="entranceGradI" cx="0.5" cy="0.4" r="0.7">
      <stop offset="0" stop-color="#1a1208"/>
      <stop offset="1" stop-color="#000000"/>
    </radialGradient>
  </defs>

  <polygon points="2,58 10,28 18,42 28,16 38,38 48,22 58,42 62,58" fill="url(#rockGradI)" stroke="#1e1810" stroke-width="0.8"/>

  <path d="M18,58 L18,40 Q18,32 32,30 Q46,32 46,40 L46,58 Z" fill="#2e2418" stroke="#1e1408" stroke-width="0.8"/>
  <path d="M22,58 L22,44 Q22,38 32,36 Q42,38 42,44 L42,58 Z" fill="url(#entranceGradI)"/>

  <g>
    <rect x="14" y="20" width="36" height="12" rx="1.5" fill="url(#goldGradI)" stroke="#3a1e08" stroke-width="1"/>
    <text x="32" y="30" font-family="Georgia, serif" font-size="11" font-weight="bold" text-anchor="middle" fill="#3a1e08" letter-spacing="1">Or</text>
  </g>

  <g fill="url(#goldGradI)" stroke="#6a4810" stroke-width="0.4">
    <circle cx="8" cy="46" r="1.4"/>
    <circle cx="56" cy="46" r="1.4"/>
    <circle cx="50" cy="54" r="1.2"/>
    <circle cx="12" cy="54" r="1.2"/>
  </g>
</svg>
