<svg xmlns="http://www.w3.org/2000/svg" viewBox="0 0 64 64" width="64" height="64" shape-rendering="geometricPrecision">
  <defs>
    <radialGradient id="iconStoneGrad" cx="0.5" cy="0.5" r="0.55">
      <stop offset="0" stop-color="#a4aab2"/>
      <stop offset="0.7" stop-color="#70747c"/>
      <stop offset="1" stop-color="#3d4046"/>
    </radialGradient>
    <radialGradient id="iconInnerGrad" cx="0.5" cy="0.5" r="0.5">
      <stop offset="0" stop-color="#2a2d33"/>
      <stop offset="1" stop-color="#15171b"/>
    </radialGradient>
    <radialGradient id="iconPlatformGrad" cx="0.5" cy="0.5" r="0.6">
      <stop offset="0" stop-color="#856038"/>
      <stop offset="1" stop-color="#4a3520"/>
    </radialGradient>
  </defs>

  <!-- Outer wall -->
  <rect x="4" y="4" width="56" height="56" rx="2" fill="url(#iconStoneGrad)" stroke="#23262b" stroke-width="1"/>

  <!-- Crenellations -->
  <g fill="#5a5e64" stroke="#23262b" stroke-width="0.7">
    <rect x="6" y="2" width="6" height="6"/>
    <rect x="18" y="2" width="6" height="6"/>
    <rect x="30" y="2" width="6" height="6"/>
    <rect x="42" y="2" width="6" height="6"/>
    <rect x="54" y="2" width="6" height="6"/>
    <rect x="6" y="56" width="6" height="6"/>
    <rect x="18" y="56" width="6" height="6"/>
    <rect x="30" y="56" width="6" height="6"/>
    <rect x="42" y="56" width="6" height="6"/>
    <rect x="54" y="56" width="6" height="6"/>
    <rect x="2" y="6" width="6" height="6"/>
    <rect x="2" y="18" width="6" height="6"/>
    <rect x="2" y="30" width="6" height="6"/>
    <rect x="2" y="42" width="6" height="6"/>
    <rect x="2" y="54" width="6" height="6"/>
    <rect x="56" y="6" width="6" height="6"/>
    <rect x="56" y="18" width="6" height="6"/>
    <rect x="56" y="30" width="6" height="6"/>
    <rect x="56" y="42" width="6" height="6"/>
    <rect x="56" y="54" width="6" height="6"/>
  </g>

  <!-- Inner platform -->
  <rect x="14" y="14" width="36" height="36" rx="1" fill="url(#iconPlatformGrad)" stroke="#2a1e10" stroke-width="0.8"/>

  <!-- Central opening -->
  <circle cx="32" cy="32" r="10" fill="url(#iconInnerGrad)" stroke="#0a0b0e" stroke-width="0.8"/>

  <!-- Ballista -->
  <rect x="30" y="18" width="4" height="28" rx="1" fill="#3a2614" stroke="#1a0e06" stroke-width="0.5"/>
  <rect x="20" y="30" width="24" height="3" rx="1" fill="#3a2614" stroke="#1a0e06" stroke-width="0.5"/>
  <line x1="20" y1="32" x2="44" y2="32" stroke="#d0c090" stroke-width="0.6"/>
  <polygon points="32,14 29,20 35,20" fill="#c8ccd2" stroke="#1a0e06" stroke-width="0.4"/>
  <circle cx="32" cy="32" r="2.2" fill="#1a0e06"/>
  <circle cx="32" cy="32" r="1" fill="#c9a227"/>
</svg>
