<svg xmlns="http://www.w3.org/2000/svg" viewBox="0 0 64 64" shape-rendering="geometricPrecision">
  <defs>
    <linearGradient id="ironRockGradI" x1="0" y1="0" x2="0" y2="1">
      <stop offset="0" stop-color="#7a8088"/>
      <stop offset="1" stop-color="#3a4048"/>
    </linearGradient>
    <linearGradient id="ironVeinI" x1="0" y1="0" x2="1" y2="1">
      <stop offset="0" stop-color="#c8a878"/>
      <stop offset="1" stop-color="#4a3018"/>
    </linearGradient>
    <radialGradient id="ironEntranceI" cx="0.5" cy="0.4" r="0.7">
      <stop offset="0" stop-color="#0a0c10"/>
      <stop offset="1" stop-color="#000000"/>
    </radialGradient>
  </defs>

  <polygon points="2,58 10,28 18,42 28,16 38,38 48,22 58,42 62,58" fill="url(#ironRockGradI)" stroke="#0e1218" stroke-width="0.8"/>

  <path d="M18,58 L18,40 Q18,32 32,30 Q46,32 46,40 L46,58 Z" fill="#1e2228" stroke="#0e1218" stroke-width="0.8"/>
  <path d="M22,58 L22,44 Q22,38 32,36 Q42,38 42,44 L42,58 Z" fill="url(#ironEntranceI)"/>

  <g>
    <rect x="14" y="20" width="36" height="12" rx="1.5" fill="url(#ironVeinI)" stroke="#3a1e08" stroke-width="1"/>
    <text x="32" y="30" font-family="Georgia, serif" font-size="11" font-weight="bold" text-anchor="middle" fill="#1a0e04" letter-spacing="1">Fer</text>
  </g>

  <g fill="url(#ironVeinI)" stroke="#3a2018" stroke-width="0.4">
    <circle cx="8" cy="46" r="1.4"/>
    <circle cx="56" cy="46" r="1.4"/>
    <circle cx="50" cy="54" r="1.2"/>
    <circle cx="12" cy="54" r="1.2"/>
  </g>
</svg>
