<svg xmlns="http://www.w3.org/2000/svg" viewBox="0 0 128 128" shape-rendering="geometricPrecision">
  <defs>
    <linearGradient id="stoneRockGrad" x1="0" y1="0" x2="0" y2="1">
      <stop offset="0" stop-color="#c8c4bc"/>
      <stop offset="1" stop-color="#5a564e"/>
    </linearGradient>
    <linearGradient id="stoneRockDark" x1="0" y1="0" x2="0" y2="1">
      <stop offset="0" stop-color="#7a766e"/>
      <stop offset="1" stop-color="#2e2a24"/>
    </linearGradient>
    <radialGradient id="stoneShade" cx="0.5" cy="0.5" r="0.5">
      <stop offset="0" stop-color="#000" stop-opacity="0.4"/>
      <stop offset="1" stop-color="#000" stop-opacity="0"/>
    </radialGradient>
  </defs>

  <ellipse cx="64" cy="118" rx="54" ry="6" fill="url(#stoneShade)"/>

  <polygon points="14,116 28,72 42,90 60,56 78,86 100,68 116,116" fill="url(#stoneRockGrad)" stroke="#1e1810" stroke-width="1.2"/>
  <polygon points="28,72 36,86 42,90 36,82" fill="url(#stoneRockDark)" opacity="0.7"/>
  <polygon points="60,56 68,72 78,86 70,76" fill="url(#stoneRockDark)" opacity="0.7"/>
  <polygon points="100,68 108,82 116,116 110,106" fill="url(#stoneRockDark)" opacity="0.6"/>

  <g fill="#e8e4dc" opacity="0.8">
    <polygon points="60,56 56,68 64,68"/>
    <polygon points="100,68 96,80 104,80"/>
  </g>

  <g fill="#3e3a34">
    <circle cx="40" cy="104" r="1.4"/>
    <circle cx="56" cy="98" r="1.1"/>
    <circle cx="78" cy="100" r="1.3"/>
    <circle cx="92" cy="106" r="1.2"/>
    <circle cx="22" cy="108" r="1.1"/>
  </g>

  <g stroke="#3e3a34" stroke-width="0.5" fill="none" opacity="0.6">
    <path d="M30,90 L42,98"/>
    <path d="M68,80 L80,92"/>
    <path d="M96,90 L108,100"/>
  </g>
</svg>
