<svg xmlns="http://www.w3.org/2000/svg" viewBox="0 0 128 128" shape-rendering="geometricPrecision">
  <defs>
    <linearGradient id="stoneMineRock" x1="0" y1="0" x2="0" y2="1">
      <stop offset="0" stop-color="#c8c4bc"/>
      <stop offset="1" stop-color="#5a564e"/>
    </linearGradient>
    <linearGradient id="stoneMineRockDark" x1="0" y1="0" x2="0" y2="1">
      <stop offset="0" stop-color="#7a766e"/>
      <stop offset="1" stop-color="#2e2a24"/>
    </linearGradient>
    <linearGradient id="stoneWoodGrad" x1="0" y1="0" x2="0" y2="1">
      <stop offset="0" stop-color="#a87038"/>
      <stop offset="1" stop-color="#6a4218"/>
    </linearGradient>
    <radialGradient id="stoneEntranceGrad" cx="0.5" cy="0.4" r="0.7">
      <stop offset="0" stop-color="#1a1812"/>
      <stop offset="1" stop-color="#000000"/>
    </radialGradient>
    <radialGradient id="stoneGrassGrad" cx="0.5" cy="0.5" r="0.5">
      <stop offset="0" stop-color="#4a8a38"/>
      <stop offset="1" stop-color="#2a5220"/>
    </radialGradient>
  </defs>

  <ellipse cx="64" cy="120" rx="60" ry="7" fill="url(#stoneGrassGrad)" opacity="0.85"/>

  <polygon points="6,116 22,60 38,90 54,40 72,80 90,50 110,90 122,116" fill="url(#stoneMineRock)" stroke="#1e1810" stroke-width="1.2"/>
  <polygon points="22,60 30,72 38,90 32,86 26,76" fill="url(#stoneMineRockDark)" opacity="0.6"/>
  <polygon points="54,40 62,58 72,80 64,72 58,56" fill="url(#stoneMineRockDark)" opacity="0.6"/>
  <polygon points="90,50 98,68 110,90 102,82 96,68" fill="url(#stoneMineRockDark)" opacity="0.6"/>

  <g fill="#e8e4dc" opacity="0.85">
    <polygon points="54,40 50,52 58,52"/>
    <polygon points="90,50 86,62 94,62"/>
  </g>

  <path d="M40,118 L40,86 Q40,74 64,72 Q88,74 88,86 L88,118 Z" fill="url(#stoneMineRockDark)" stroke="#1e1408" stroke-width="1.4"/>
  <path d="M44,118 L44,88 Q44,78 64,76 Q84,78 84,88 L84,118" fill="url(#stoneMineRock)" opacity="0.4"/>

  <path d="M48,118 L48,96 Q48,84 64,82 Q80,84 80,96 L80,118 Z" fill="url(#stoneEntranceGrad)" stroke="#000000" stroke-width="1.2"/>

  <g fill="url(#stoneWoodGrad)" stroke="#3a1e08" stroke-width="0.8">
    <rect x="46" y="92" width="4" height="26" rx="0.5"/>
    <rect x="78" y="92" width="4" height="26" rx="0.5"/>
    <path d="M44,84 L84,84 L82,90 L46,90 Z"/>
  </g>

  <g>
    <rect x="44" y="64" width="40" height="14" rx="1.5" fill="#9a968e" stroke="#2a2622" stroke-width="1.2"/>
    <text x="64" y="76" font-family="Georgia, serif" font-size="11" font-weight="bold" text-anchor="middle" fill="#1e1810" letter-spacing="1">Pierre</text>
  </g>

  <g>
    <rect x="22" y="92" width="14" height="9" rx="1" fill="#6a4828" stroke="#2a1808" stroke-width="0.8"/>
    <rect x="24" y="93" width="10" height="6" fill="#3a2818"/>
    <g fill="#7a766e" stroke="#2a2622" stroke-width="0.3">
      <circle cx="27" cy="95" r="1"/>
      <circle cx="30" cy="96" r="0.8"/>
      <circle cx="32" cy="94.5" r="0.9"/>
    </g>
  </g>

  <g fill="#3a2818">
    <rect x="14" y="115" width="6" height="3" rx="0.5"/>
    <rect x="108" y="116" width="8" height="2" rx="0.5"/>
  </g>
</svg>
