<svg xmlns="http://www.w3.org/2000/svg" viewBox="0 0 64 64" width="64" height="64">
  <defs>
    <radialGradient id="fireCore" cx="50%" cy="55%" r="55%">
      <stop offset="0%" stop-color="#fff8dc"/>
      <stop offset="25%" stop-color="#ffd633"/>
      <stop offset="55%" stop-color="#ff7a00"/>
      <stop offset="85%" stop-color="#d62828"/>
      <stop offset="100%" stop-color="#8b0000"/>
    </radialGradient>
    <radialGradient id="fireGlow" cx="50%" cy="50%" r="50%">
      <stop offset="0%" stop-color="#ff9933" stop-opacity="0.6"/>
      <stop offset="100%" stop-color="#ff3300" stop-opacity="0"/>
    </radialGradient>
  </defs>

  <!-- Outer glow halo -->
  <circle cx="32" cy="34" r="30" fill="url(#fireGlow)"/>

  <!-- Flame tongues -->
  <path d="M32 4 C28 14 26 18 28 24 C30 18 32 14 32 8 C32 14 34 18 36 24 C38 18 36 14 32 4 Z"
        fill="#ffaa33" opacity="0.9"/>
  <path d="M14 18 C12 24 14 30 18 32 C16 26 18 22 22 20 Z"
        fill="#ffaa33" opacity="0.75"/>
  <path d="M50 18 C52 24 50 30 46 32 C48 26 46 22 42 20 Z"
        fill="#ffaa33" opacity="0.75"/>

  <!-- Main fireball body -->
  <circle cx="32" cy="36" r="22" fill="url(#fireCore)"/>

  <!-- Inner highlight -->
  <ellipse cx="27" cy="30" rx="7" ry="5" fill="#fff8dc" opacity="0.7"/>
  <circle cx="29" cy="29" r="2.5" fill="#ffffff" opacity="0.9"/>

  <!-- Flying embers -->
  <circle cx="12" cy="48" r="1.8" fill="#ffaa33"/>
  <circle cx="52" cy="50" r="1.5" fill="#ffaa33"/>
  <circle cx="20" cy="56" r="1.2" fill="#ffd633"/>
  <circle cx="44" cy="58" r="1.4" fill="#ffd633"/>
</svg>
